<svg width="196" height="45" viewBox="0 0 196 45" fill="none" xmlns="http://www.w3.org/2000/svg">
<path d="M26.1304 27.7881C26.1304 28.6654 26.0164 29.4572 25.7886 30.1636C25.5721 30.8586 25.2816 31.4738 24.917 32.0093C24.5524 32.5448 24.1252 33.0005 23.6353 33.3765C23.1453 33.7524 22.6383 34.0601 22.1143 34.2993C21.5902 34.5386 21.0547 34.7152 20.5078 34.8291C19.9723 34.943 19.4653 35 18.9868 35H1.8457V30.5566H18.9868C19.8413 30.5566 20.5021 30.306 20.9692 29.8047C21.4478 29.3034 21.687 28.6312 21.687 27.7881C21.687 27.3779 21.6243 27.002 21.499 26.6602C21.3737 26.3184 21.1914 26.0221 20.9521 25.7715C20.7243 25.5208 20.4395 25.3271 20.0977 25.1904C19.7673 25.0537 19.397 24.9854 18.9868 24.9854H8.76709C8.04932 24.9854 7.27458 24.86 6.44287 24.6094C5.61117 24.3473 4.83643 23.9315 4.11865 23.3618C3.41227 22.7922 2.81982 22.0459 2.34131 21.123C1.87419 20.2002 1.64062 19.0723 1.64062 17.7393C1.64062 16.4062 1.87419 15.284 2.34131 14.3726C2.81982 13.4497 3.41227 12.7035 4.11865 12.1338C4.83643 11.5527 5.61117 11.1369 6.44287 10.8862C7.27458 10.6242 8.04932 10.4932 8.76709 10.4932H23.8916V14.9365H8.76709C7.92399 14.9365 7.26318 15.1929 6.78467 15.7056C6.31755 16.2183 6.08398 16.8962 6.08398 17.7393C6.08398 18.5938 6.31755 19.2716 6.78467 19.7729C7.26318 20.2629 7.92399 20.5078 8.76709 20.5078H18.9868H19.021C19.4995 20.5192 20.0065 20.5876 20.542 20.7129C21.0775 20.8268 21.6073 21.0091 22.1313 21.2598C22.6668 21.5104 23.1738 21.8294 23.6523 22.2168C24.1309 22.5928 24.5524 23.0485 24.917 23.584C25.293 24.1195 25.5892 24.7347 25.8057 25.4297C26.0221 26.1247 26.1304 26.9108 26.1304 27.7881ZM52.9272 18.6963C52.9272 19.7103 52.7962 20.616 52.5342 21.4136C52.2835 22.2111 51.9474 22.9175 51.5259 23.5327C51.1043 24.1366 50.6087 24.6549 50.0391 25.0879C49.4808 25.5208 48.8997 25.8797 48.2959 26.1646C47.6921 26.438 47.0768 26.6374 46.4502 26.7627C45.835 26.888 45.2539 26.9507 44.707 26.9507H42.9126V35H38.4351V26.9507H36.6577C36.1108 26.9507 35.5241 26.888 34.8975 26.7627C34.2822 26.6374 33.667 26.438 33.0518 26.1646C32.4479 25.8797 31.8669 25.5208 31.3086 25.0879C30.7503 24.6549 30.2547 24.1366 29.8218 23.5327C29.4002 22.9175 29.0584 22.2111 28.7964 21.4136C28.5457 20.6047 28.4204 19.6989 28.4204 18.6963V10.4932H32.8638V18.6963C32.8638 19.2773 32.9549 19.8014 33.1372 20.2686C33.3195 20.7243 33.5758 21.1174 33.9062 21.4478C34.2367 21.7782 34.6354 22.0345 35.1025 22.2168C35.5811 22.3877 36.1108 22.4731 36.6919 22.4731H44.707C45.1286 22.4048 45.5615 22.3193 46.0059 22.2168C46.4502 22.1029 46.8547 21.9149 47.2192 21.6528C47.5838 21.3908 47.8857 21.0262 48.125 20.5591C48.3643 20.092 48.4839 19.471 48.4839 18.6963V10.4932H52.9272V18.6963ZM81.416 33.103C81.416 33.422 81.3534 33.7183 81.228 33.9917C81.1141 34.2651 80.9546 34.5044 80.7495 34.7095C80.5558 34.9032 80.3223 35.057 80.0488 35.1709C79.7754 35.2848 79.4849 35.3418 79.1772 35.3418C78.9038 35.3418 78.6247 35.2905 78.3398 35.188C78.0664 35.0854 77.8215 34.9202 77.605 34.6924L61.3696 17.7393V35H56.9263V12.3901C56.9263 11.9344 57.0516 11.5243 57.3022 11.1597C57.5643 10.7837 57.8947 10.5046 58.2935 10.3223C58.715 10.1514 59.1479 10.1115 59.5923 10.2026C60.0366 10.2824 60.4183 10.4875 60.7373 10.8179L76.9727 27.7539V10.4932H81.416V33.103ZM110.64 35H106.196V28.9844H90.5762V35H86.1328V22.7466C86.1328 20.9578 86.4404 19.3115 87.0557 17.8076C87.6709 16.3037 88.5254 15.0106 89.6191 13.9282C90.7129 12.8459 92.006 12.0028 93.4985 11.3989C94.991 10.7951 96.6203 10.4932 98.3862 10.4932H108.401C108.708 10.4932 108.999 10.5501 109.272 10.6641C109.546 10.778 109.785 10.9375 109.99 11.1426C110.195 11.3477 110.355 11.5869 110.469 11.8604C110.583 12.1338 110.64 12.4243 110.64 12.7319V35ZM90.5762 24.541H106.196V14.9365H98.3862C98.2495 14.9365 97.959 14.9593 97.5146 15.0049C97.0817 15.0391 96.5747 15.1359 95.9937 15.2954C95.424 15.4549 94.8201 15.6999 94.1821 16.0303C93.5441 16.3607 92.9574 16.8164 92.4219 17.3975C91.8864 17.9785 91.4421 18.7077 91.0889 19.585C90.7471 20.4508 90.5762 21.5047 90.5762 22.7466V24.541ZM140.239 20.7471C140.239 21.7611 140.114 22.6668 139.863 23.4644C139.613 24.2619 139.271 24.9683 138.838 25.5835C138.416 26.1873 137.926 26.7057 137.368 27.1387C136.81 27.5716 136.223 27.9248 135.608 28.1982C135.004 28.4717 134.389 28.6711 133.762 28.7964C133.147 28.9217 132.566 28.9844 132.019 28.9844H121.97V24.541H132.019C132.589 24.4954 133.101 24.3815 133.557 24.1992C134.024 24.0055 134.423 23.7492 134.753 23.4302C135.084 23.1112 135.34 22.7295 135.522 22.2852C135.705 21.8294 135.796 21.3167 135.796 20.7471V18.7305C135.739 18.1722 135.619 17.6595 135.437 17.1924C135.255 16.7253 135.004 16.3265 134.685 15.9961C134.377 15.6657 134.001 15.4093 133.557 15.2271C133.113 15.0334 132.6 14.9365 132.019 14.9365H122.004C121.412 14.9365 120.962 15.0903 120.654 15.3979C120.347 15.7056 120.193 16.1499 120.193 16.731V35H115.75V16.731C115.75 15.5916 115.955 14.6232 116.365 13.8257C116.786 13.0282 117.305 12.3844 117.92 11.8945C118.547 11.4046 119.224 11.0514 119.954 10.835C120.683 10.6071 121.355 10.4932 121.97 10.4932H132.019C133.022 10.4932 133.922 10.6242 134.719 10.8862C135.517 11.1369 136.217 11.4787 136.821 11.9116C137.437 12.3332 137.955 12.8231 138.376 13.3813C138.809 13.9396 139.163 14.5264 139.436 15.1416C139.721 15.7454 139.926 16.3607 140.051 16.9873C140.177 17.6025 140.239 18.1836 140.239 18.7305V20.7471ZM167.6 27.7881C167.6 28.6654 167.486 29.4572 167.258 30.1636C167.042 30.8586 166.751 31.4738 166.387 32.0093C166.022 32.5448 165.595 33.0005 165.105 33.3765C164.615 33.7524 164.108 34.0601 163.584 34.2993C163.06 34.5386 162.524 34.7152 161.978 34.8291C161.442 34.943 160.935 35 160.457 35H143.315V30.5566H160.457C161.311 30.5566 161.972 30.306 162.439 29.8047C162.917 29.3034 163.157 28.6312 163.157 27.7881C163.157 27.3779 163.094 27.002 162.969 26.6602C162.843 26.3184 162.661 26.0221 162.422 25.7715C162.194 25.5208 161.909 25.3271 161.567 25.1904C161.237 25.0537 160.867 24.9854 160.457 24.9854H150.237C149.519 24.9854 148.744 24.86 147.913 24.6094C147.081 24.3473 146.306 23.9315 145.588 23.3618C144.882 22.7922 144.29 22.0459 143.811 21.123C143.344 20.2002 143.11 19.0723 143.11 17.7393C143.11 16.4062 143.344 15.284 143.811 14.3726C144.29 13.4497 144.882 12.7035 145.588 12.1338C146.306 11.5527 147.081 11.1369 147.913 10.8862C148.744 10.6242 149.519 10.4932 150.237 10.4932H165.361V14.9365H150.237C149.394 14.9365 148.733 15.1929 148.254 15.7056C147.787 16.2183 147.554 16.8962 147.554 17.7393C147.554 18.5938 147.787 19.2716 148.254 19.7729C148.733 20.2629 149.394 20.5078 150.237 20.5078H160.457H160.491C160.969 20.5192 161.476 20.5876 162.012 20.7129C162.547 20.8268 163.077 21.0091 163.601 21.2598C164.137 21.5104 164.644 21.8294 165.122 22.2168C165.601 22.5928 166.022 23.0485 166.387 23.584C166.763 24.1195 167.059 24.7347 167.275 25.4297C167.492 26.1247 167.6 26.9108 167.6 27.7881ZM191.44 24.9854H177.41V20.5078H191.44V24.9854ZM193.44 35H177.41C176.794 35 176.122 34.8918 175.393 34.6753C174.664 34.4588 173.986 34.1056 173.359 33.6157C172.744 33.1144 172.226 32.4707 171.804 31.6846C171.394 30.887 171.189 29.9129 171.189 28.7622V12.7319C171.189 12.4243 171.246 12.1338 171.36 11.8604C171.474 11.5869 171.628 11.3477 171.821 11.1426C172.026 10.9375 172.266 10.778 172.539 10.6641C172.812 10.5501 173.109 10.4932 173.428 10.4932H193.44V14.9365H175.632V28.7622C175.632 29.3433 175.786 29.7876 176.094 30.0952C176.401 30.4028 176.851 30.5566 177.444 30.5566H193.44V35Z" fill="white"/>
<path d="M26.1304 27.7881C26.1304 28.6654 26.0164 29.4572 25.7886 30.1636C25.5721 30.8586 25.2816 31.4738 24.917 32.0093C24.5524 32.5448 24.1252 33.0005 23.6353 33.3765C23.1453 33.7524 22.6383 34.0601 22.1143 34.2993C21.5902 34.5386 21.0547 34.7152 20.5078 34.8291C19.9723 34.943 19.4653 35 18.9868 35H1.8457V30.5566H18.9868C19.8413 30.5566 20.5021 30.306 20.9692 29.8047C21.4478 29.3034 21.687 28.6312 21.687 27.7881C21.687 27.3779 21.6243 27.002 21.499 26.6602C21.3737 26.3184 21.1914 26.0221 20.9521 25.7715C20.7243 25.5208 20.4395 25.3271 20.0977 25.1904C19.7673 25.0537 19.397 24.9854 18.9868 24.9854H8.76709C8.04932 24.9854 7.27458 24.86 6.44287 24.6094C5.61117 24.3473 4.83643 23.9315 4.11865 23.3618C3.41227 22.7922 2.81982 22.0459 2.34131 21.123C1.87419 20.2002 1.64062 19.0723 1.64062 17.7393C1.64062 16.4062 1.87419 15.284 2.34131 14.3726C2.81982 13.4497 3.41227 12.7035 4.11865 12.1338C4.83643 11.5527 5.61117 11.1369 6.44287 10.8862C7.27458 10.6242 8.04932 10.4932 8.76709 10.4932H23.8916V14.9365H8.76709C7.92399 14.9365 7.26318 15.1929 6.78467 15.7056C6.31755 16.2183 6.08398 16.8962 6.08398 17.7393C6.08398 18.5938 6.31755 19.2716 6.78467 19.7729C7.26318 20.2629 7.92399 20.5078 8.76709 20.5078H18.9868H19.021C19.4995 20.5192 20.0065 20.5876 20.542 20.7129C21.0775 20.8268 21.6073 21.0091 22.1313 21.2598C22.6668 21.5104 23.1738 21.8294 23.6523 22.2168C24.1309 22.5928 24.5524 23.0485 24.917 23.584C25.293 24.1195 25.5892 24.7347 25.8057 25.4297C26.0221 26.1247 26.1304 26.9108 26.1304 27.7881ZM52.9272 18.6963C52.9272 19.7103 52.7962 20.616 52.5342 21.4136C52.2835 22.2111 51.9474 22.9175 51.5259 23.5327C51.1043 24.1366 50.6087 24.6549 50.0391 25.0879C49.4808 25.5208 48.8997 25.8797 48.2959 26.1646C47.6921 26.438 47.0768 26.6374 46.4502 26.7627C45.835 26.888 45.2539 26.9507 44.707 26.9507H42.9126V35H38.4351V26.9507H36.6577C36.1108 26.9507 35.5241 26.888 34.8975 26.7627C34.2822 26.6374 33.667 26.438 33.0518 26.1646C32.4479 25.8797 31.8669 25.5208 31.3086 25.0879C30.7503 24.6549 30.2547 24.1366 29.8218 23.5327C29.4002 22.9175 29.0584 22.2111 28.7964 21.4136C28.5457 20.6047 28.4204 19.6989 28.4204 18.6963V10.4932H32.8638V18.6963C32.8638 19.2773 32.9549 19.8014 33.1372 20.2686C33.3195 20.7243 33.5758 21.1174 33.9062 21.4478C34.2367 21.7782 34.6354 22.0345 35.1025 22.2168C35.5811 22.3877 36.1108 22.4731 36.6919 22.4731H44.707C45.1286 22.4048 45.5615 22.3193 46.0059 22.2168C46.4502 22.1029 46.8547 21.9149 47.2192 21.6528C47.5838 21.3908 47.8857 21.0262 48.125 20.5591C48.3643 20.092 48.4839 19.471 48.4839 18.6963V10.4932H52.9272V18.6963ZM81.416 33.103C81.416 33.422 81.3534 33.7183 81.228 33.9917C81.1141 34.2651 80.9546 34.5044 80.7495 34.7095C80.5558 34.9032 80.3223 35.057 80.0488 35.1709C79.7754 35.2848 79.4849 35.3418 79.1772 35.3418C78.9038 35.3418 78.6247 35.2905 78.3398 35.188C78.0664 35.0854 77.8215 34.9202 77.605 34.6924L61.3696 17.7393V35H56.9263V12.3901C56.9263 11.9344 57.0516 11.5243 57.3022 11.1597C57.5643 10.7837 57.8947 10.5046 58.2935 10.3223C58.715 10.1514 59.1479 10.1115 59.5923 10.2026C60.0366 10.2824 60.4183 10.4875 60.7373 10.8179L76.9727 27.7539V10.4932H81.416V33.103ZM110.64 35H106.196V28.9844H90.5762V35H86.1328V22.7466C86.1328 20.9578 86.4404 19.3115 87.0557 17.8076C87.6709 16.3037 88.5254 15.0106 89.6191 13.9282C90.7129 12.8459 92.006 12.0028 93.4985 11.3989C94.991 10.7951 96.6203 10.4932 98.3862 10.4932H108.401C108.708 10.4932 108.999 10.5501 109.272 10.6641C109.546 10.778 109.785 10.9375 109.99 11.1426C110.195 11.3477 110.355 11.5869 110.469 11.8604C110.583 12.1338 110.64 12.4243 110.64 12.7319V35ZM90.5762 24.541H106.196V14.9365H98.3862C98.2495 14.9365 97.959 14.9593 97.5146 15.0049C97.0817 15.0391 96.5747 15.1359 95.9937 15.2954C95.424 15.4549 94.8201 15.6999 94.1821 16.0303C93.5441 16.3607 92.9574 16.8164 92.4219 17.3975C91.8864 17.9785 91.4421 18.7077 91.0889 19.585C90.7471 20.4508 90.5762 21.5047 90.5762 22.7466V24.541ZM140.239 20.7471C140.239 21.7611 140.114 22.6668 139.863 23.4644C139.613 24.2619 139.271 24.9683 138.838 25.5835C138.416 26.1873 137.926 26.7057 137.368 27.1387C136.81 27.5716 136.223 27.9248 135.608 28.1982C135.004 28.4717 134.389 28.6711 133.762 28.7964C133.147 28.9217 132.566 28.9844 132.019 28.9844H121.97V24.541H132.019C132.589 24.4954 133.101 24.3815 133.557 24.1992C134.024 24.0055 134.423 23.7492 134.753 23.4302C135.084 23.1112 135.34 22.7295 135.522 22.2852C135.705 21.8294 135.796 21.3167 135.796 20.7471V18.7305C135.739 18.1722 135.619 17.6595 135.437 17.1924C135.255 16.7253 135.004 16.3265 134.685 15.9961C134.377 15.6657 134.001 15.4093 133.557 15.2271C133.113 15.0334 132.6 14.9365 132.019 14.9365H122.004C121.412 14.9365 120.962 15.0903 120.654 15.3979C120.347 15.7056 120.193 16.1499 120.193 16.731V35H115.75V16.731C115.75 15.5916 115.955 14.6232 116.365 13.8257C116.786 13.0282 117.305 12.3844 117.92 11.8945C118.547 11.4046 119.224 11.0514 119.954 10.835C120.683 10.6071 121.355 10.4932 121.97 10.4932H132.019C133.022 10.4932 133.922 10.6242 134.719 10.8862C135.517 11.1369 136.217 11.4787 136.821 11.9116C137.437 12.3332 137.955 12.8231 138.376 13.3813C138.809 13.9396 139.163 14.5264 139.436 15.1416C139.721 15.7454 139.926 16.3607 140.051 16.9873C140.177 17.6025 140.239 18.1836 140.239 18.7305V20.7471ZM167.6 27.7881C167.6 28.6654 167.486 29.4572 167.258 30.1636C167.042 30.8586 166.751 31.4738 166.387 32.0093C166.022 32.5448 165.595 33.0005 165.105 33.3765C164.615 33.7524 164.108 34.0601 163.584 34.2993C163.06 34.5386 162.524 34.7152 161.978 34.8291C161.442 34.943 160.935 35 160.457 35H143.315V30.5566H160.457C161.311 30.5566 161.972 30.306 162.439 29.8047C162.917 29.3034 163.157 28.6312 163.157 27.7881C163.157 27.3779 163.094 27.002 162.969 26.6602C162.843 26.3184 162.661 26.0221 162.422 25.7715C162.194 25.5208 161.909 25.3271 161.567 25.1904C161.237 25.0537 160.867 24.9854 160.457 24.9854H150.237C149.519 24.9854 148.744 24.86 147.913 24.6094C147.081 24.3473 146.306 23.9315 145.588 23.3618C144.882 22.7922 144.29 22.0459 143.811 21.123C143.344 20.2002 143.11 19.0723 143.11 17.7393C143.11 16.4062 143.344 15.284 143.811 14.3726C144.29 13.4497 144.882 12.7035 145.588 12.1338C146.306 11.5527 147.081 11.1369 147.913 10.8862C148.744 10.6242 149.519 10.4932 150.237 10.4932H165.361V14.9365H150.237C149.394 14.9365 148.733 15.1929 148.254 15.7056C147.787 16.2183 147.554 16.8962 147.554 17.7393C147.554 18.5938 147.787 19.2716 148.254 19.7729C148.733 20.2629 149.394 20.5078 150.237 20.5078H160.457H160.491C160.969 20.5192 161.476 20.5876 162.012 20.7129C162.547 20.8268 163.077 21.0091 163.601 21.2598C164.137 21.5104 164.644 21.8294 165.122 22.2168C165.601 22.5928 166.022 23.0485 166.387 23.584C166.763 24.1195 167.059 24.7347 167.275 25.4297C167.492 26.1247 167.6 26.9108 167.6 27.7881ZM191.44 24.9854H177.41V20.5078H191.44V24.9854ZM193.44 35H177.41C176.794 35 176.122 34.8918 175.393 34.6753C174.664 34.4588 173.986 34.1056 173.359 33.6157C172.744 33.1144 172.226 32.4707 171.804 31.6846C171.394 30.887 171.189 29.9129 171.189 28.7622V12.7319C171.189 12.4243 171.246 12.1338 171.36 11.8604C171.474 11.5869 171.628 11.3477 171.821 11.1426C172.026 10.9375 172.266 10.778 172.539 10.6641C172.812 10.5501 173.109 10.4932 173.428 10.4932H193.44V14.9365H175.632V28.7622C175.632 29.3433 175.786 29.7876 176.094 30.0952C176.401 30.4028 176.851 30.5566 177.444 30.5566H193.44V35Z" fill="#151A25"/>
</svg>
